<?xml version="1.0" encoding="UTF-8"?>
<!DOCTYPE svg PUBLIC "-//W3C//DTD SVG 1.1//EN" "http://www.w3.org/Graphics/SVG/1.1/DTD/svg11.dtd">
<!-- Creator: CorelDRAW 2018 (64-Bit) -->
<svg xmlns="http://www.w3.org/2000/svg" xml:space="preserve" width="63.4405mm" height="28.9939mm" version="1.1" style="shape-rendering:geometricPrecision; text-rendering:geometricPrecision; image-rendering:optimizeQuality; fill-rule:evenodd; clip-rule:evenodd"
viewBox="0 0 90524 41372"
 xmlns:xlink="http://www.w3.org/1999/xlink">
 <defs>
  <style type="text/css">
   <![CDATA[
    .fil1 {fill:#522B1D}
    .fil0 {fill:#A94538}
   ]]>
  </style>
 </defs>
 <g id="Слой_x0020_1">
  <metadata id="CorelCorpID_0Corel-Layer"/>
  <g id="_2261278034928">
   <g>
    <path class="fil0" d="M57103 8417c-132,713 -278,1488 -288,2291 -74,5580 2582,12085 9134,11863 5622,-191 10165,-6764 8299,-9648 -8,-13 -20,-29 -28,-42l-51 -89c-463,-822 -3157,-1552 -4008,-2011 -1658,-895 -1416,-791 -1915,-97 -153,213 -238,269 -422,546 -289,439 -531,824 -815,1220 -229,319 -703,812 -211,1274 437,410 2237,1592 2296,1740 177,447 -1114,1238 -1496,1338 -900,237 -1608,187 -2387,-156 -1468,-647 -2075,-1985 -2040,-3630 17,-804 212,-1803 542,-2328 740,-1178 1592,-2253 3105,-2494 366,-58 917,-104 1318,-64 1234,431 1720,1080 2660,1527 546,246 1329,-416 1757,-751 664,-518 1039,-757 1658,-1565 318,-415 315,-1647 -217,-2344 -971,-1272 -3278,-3298 -4601,-3998 -5485,-2902 -10823,2195 -12289,7418z"/>
    <path class="fil0" d="M45625 22158c3014,478 6030,-1001 7819,-3430 1578,-2143 3239,-5727 37,-7318 -920,-457 -1567,-618 -2825,-1245 -1135,-566 -2776,1198 -3119,2510 -55,246 -2,408 198,609 419,311 1955,731 2349,925 2935,1449 -8442,7628 -8447,-2730 -1,-2328 1252,-5054 3820,-5664 2720,-646 6261,1212 6828,3099 109,363 813,67 1646,-603 294,-237 1081,-829 1202,-1094 833,-1821 -742,-3501 -1984,-4619 -7412,-6674 -16471,639 -15567,9158 589,5556 2477,8801 8044,10401z"/>
    <path class="fil0" d="M7457 15198c-367,1328 -1112,5678 -1460,6574 -66,171 -39,218 -133,382 -90,156 -291,297 -534,387 -113,113 -231,179 -351,179 -795,0 -5024,131 -4978,-880 5,-104 27,-277 62,-502 0,-94 3,-189 6,-283l34 37c37,-215 81,-462 133,-733 -19,-518 -60,-966 -62,-1564 -6,-2309 -111,-4203 5,-6615 71,-1474 55,-10217 223,-10906 134,-551 965,-401 1732,-415 709,-13 1462,-24 2169,-9 651,14 1417,-53 1667,510 977,2198 -615,4561 775,8440 1296,103 3256,56 4347,-54 524,-53 462,-328 609,-765 169,-503 584,-4123 587,-4781 7,-1469 -39,-2070 400,-2435 936,-777 5026,-1189 5552,-573 334,391 372,9297 374,10556 4,2944 122,6242 493,9183 96,758 -77,742 -118,1278 -192,613 -1661,464 -2436,406 -433,-32 -866,-106 -1334,-123 -633,-22 -833,18 -1261,-271 -56,-574 -161,58 -334,-1376 -236,-1962 -303,-2829 -392,-4882 -29,-666 -217,-788 -881,-778 -560,9 -1121,16 -1681,20 -948,7 -2264,-86 -3213,-7z"/>
    <path class="fil0" d="M76824 10990c0,2634 -217,4853 -284,7409 -12,459 -438,3509 173,3852 915,162 1996,-44 2843,-156 1308,-174 4244,-129 5694,-129 1013,0 2827,278 3650,-70 133,-358 295,-1913 307,-2308 24,-826 158,-1609 134,-2477 -368,-215 -220,-298 -800,-359 -1280,-135 -2306,-298 -3642,-298 -1187,0 -2596,420 -2170,-1148 209,-770 1413,-419 3083,-519 687,-41 1507,-40 1579,-718 65,-613 -40,-1641 -43,-2309 -4,-789 63,-927 -137,-1199 -8,-11 -21,-28 -30,-39 -232,-283 164,86 -135,-132 -140,-102 -235,-103 -461,-108l-3509 -106c-768,-143 -415,-1451 -414,-2257 1,-437 -58,-950 237,-1122l251 -94c1010,-201 6050,243 6586,-387 232,-273 314,-1477 432,-2110 68,-364 85,-759 157,-1102 137,-655 670,-1526 -877,-1530l-6524 -97c-796,-86 -1585,-144 -2358,-182 -973,-47 -2604,-335 -3569,-186 -407,63 -689,146 -784,526 -102,407 83,684 109,1041 29,407 51,789 63,1184 26,871 205,1438 224,2308 38,1714 216,3111 216,4826z"/>
    <path class="fil0" d="M31610 19556c-101,-1456 -811,-4992 -645,-5814 1,-7 156,-585 158,-589 10,-21 23,-32 78,-122 906,-1260 5666,-8814 5679,-8825l1120 -2453 -1240 -39c-691,-27 -1036,-141 -1688,-167 -884,-36 -1915,-442 -2434,131 -918,1694 -1879,3839 -2640,5566 -224,509 -747,2114 -1259,1376l-1083 -2329c-140,-313 -753,-1412 -908,-1921l-857 -1931c-345,-677 -62,-1020 -2374,-895 -2202,119 -2566,-382 -4108,-158 27,464 624,1452 945,1888l281 414c11,18 44,69 55,87 1496,2791 3035,5564 4551,8347 161,322 531,859 614,1218 201,867 310,2529 351,3446 55,1212 118,2418 152,3632 22,768 9,1029 500,1356 553,368 1264,579 1988,702 2973,502 2942,-357 2765,-2919z"/>
   </g>
   <g>
    <g>
     <polygon class="fil1" points="36299,29689 34580,29689 31638,36625 29710,32094 28789,32113 27102,36604 24278,29689 22559,29689 26356,38986 28075,38986 29343,35495 30794,38959 30783,38986 30806,38986 32502,38986 32524,38986 32513,38959 "/>
     <path class="fil1" d="M41657 29689c2498,0 4523,2025 4523,4523 0,2498 -2025,4523 -4523,4523 -2498,0 -4523,-2025 -4523,-4523 0,-2498 2025,-4523 4523,-4523zm-1257 1850l3798 4180c262,-441 413,-957 413,-1507 0,-1631 -1322,-2954 -2954,-2954 -450,0 -876,101 -1257,280zm2515 5346l-3798 -4180c-262,441 -413,957 -413,1507 0,1631 1322,2954 2954,2954 450,0 876,-101 1257,-281z"/>
     <path class="fil1" d="M49037 38772l1565 0 0 -2570 1413 0 3904 4557 2532 614 -4230 -5342c699,-328 1726,-1304 1865,-2514 243,-2106 -942,-3603 -3056,-3827l-2427 0 -1565 0 -238 0 -667 1557 905 4 0 7522zm3387 -4120l-1822 0 0 -3395 1814 8c963,4 1951,411 2139,1486 254,1459 -1021,1902 -2131,1902z"/>
     <polygon class="fil1" points="59174,29712 60747,29712 60747,33801 64669,29689 66702,29712 62837,34098 68635,41096 66602,41119 61751,35330 60747,36470 60747,39040 59174,39040 "/>
    </g>
    <rect class="fil1" transform="matrix(0.78234 -0 0.447116 0.78234 7011.05 33160.7)" width="14976" height="1510"/>
    <rect class="fil1" transform="matrix(-0.78234 -0 -0.447116 -0.78234 83513.3 34342.2)" width="14976" height="1510"/>
   </g>
  </g>
 </g>
</svg>
